<?xml version="1.0" encoding="utf-8"?>
<!-- Generator: Adobe Illustrator 24.0.1, SVG Export Plug-In . SVG Version: 6.00 Build 0)  -->
<svg version="1.1" id="Camada_1" xmlns="http://www.w3.org/2000/svg" xmlns:xlink="http://www.w3.org/1999/xlink" x="0px" y="0px"
	 viewBox="0 0 536 156" style="enable-background:new 0 0 536 156;" xml:space="preserve">
<style type="text/css">
	.st0{fill:#FFFFFF;}
</style>
<g>
	<path class="st0" d="M53.34,109.35c2.93,2.84,7.14,4.26,12.63,4.26c3.94,0,7.32-0.98,10.16-2.95c2.84-1.97,4.58-4.05,5.22-6.25
		h17.17c-2.75,8.51-6.96,14.6-12.63,18.26c-5.68,3.66-12.54,5.49-20.6,5.49c-5.58,0-10.62-0.89-15.11-2.68
		c-4.49-1.78-8.29-4.33-11.4-7.62c-3.11-3.3-5.52-7.23-7.21-11.81c-1.69-4.58-2.54-9.61-2.54-15.11c0-5.31,0.87-10.25,2.61-14.83
		c1.74-4.58,4.21-8.54,7.42-11.88c3.2-3.34,7.03-5.97,11.47-7.9c4.44-1.92,9.36-2.88,14.76-2.88c6.04,0,11.31,1.17,15.79,3.5
		c4.48,2.33,8.17,5.47,11.06,9.41c2.88,3.94,4.96,8.42,6.25,13.46c1.28,5.04,1.74,10.3,1.37,15.79H48.53
		C48.81,101.93,50.41,106.51,53.34,109.35z M75.38,71.99c-2.33-2.56-5.88-3.85-10.64-3.85c-3.11,0-5.7,0.53-7.76,1.58
		c-2.06,1.05-3.71,2.36-4.94,3.91c-1.24,1.56-2.11,3.21-2.61,4.94c-0.5,1.74-0.8,3.3-0.89,4.67h31.72
		C79.34,78.31,77.72,74.56,75.38,71.99z"/>
	<path class="st0" d="M125.44,126.38l-24.31-71h20.46l14.97,48.48h0.27l14.97-48.48h19.36l-24.03,71H125.44z"/>
	<path class="st0" d="M175.01,77.21c0.27-4.58,1.42-8.38,3.43-11.4c2.01-3.02,4.58-5.45,7.69-7.28c3.11-1.83,6.61-3.13,10.51-3.91
		c3.89-0.78,7.8-1.17,11.74-1.17c3.57,0,7.19,0.25,10.85,0.76c3.66,0.5,7,1.49,10.02,2.95c3.02,1.47,5.49,3.5,7.42,6.11
		c1.92,2.61,2.88,6.07,2.88,10.37v36.94c0,3.21,0.18,6.27,0.55,9.2c0.36,2.93,1.01,5.13,1.92,6.59h-19.78
		c-0.37-1.1-0.66-2.22-0.89-3.37c-0.23-1.14-0.39-2.31-0.48-3.5c-3.11,3.21-6.78,5.45-10.99,6.73c-4.21,1.28-8.51,1.92-12.91,1.92
		c-3.39,0-6.55-0.41-9.48-1.24c-2.93-0.82-5.49-2.1-7.69-3.84c-2.2-1.74-3.91-3.94-5.15-6.59c-1.24-2.65-1.85-5.81-1.85-9.48
		c0-4.03,0.71-7.35,2.13-9.96c1.42-2.61,3.25-4.69,5.49-6.25c2.24-1.56,4.81-2.72,7.69-3.5c2.88-0.78,5.79-1.39,8.72-1.85
		c2.93-0.46,5.81-0.82,8.65-1.1c2.84-0.28,5.36-0.69,7.55-1.24c2.2-0.55,3.94-1.35,5.22-2.4c1.28-1.05,1.88-2.59,1.79-4.6
		c0-2.1-0.34-3.78-1.03-5.01c-0.69-1.24-1.6-2.2-2.75-2.88c-1.15-0.69-2.47-1.14-3.98-1.37c-1.51-0.23-3.14-0.34-4.88-0.34
		c-3.85,0-6.87,0.82-9.06,2.47c-2.2,1.65-3.48,4.39-3.85,8.24H175.01z M220.06,91.63c-0.82,0.73-1.85,1.3-3.09,1.72
		c-1.24,0.41-2.56,0.76-3.98,1.03c-1.42,0.28-2.91,0.5-4.46,0.69c-1.56,0.18-3.11,0.41-4.67,0.69c-1.47,0.27-2.91,0.64-4.33,1.1
		c-1.42,0.46-2.66,1.08-3.71,1.85c-1.05,0.78-1.9,1.76-2.54,2.95c-0.64,1.19-0.96,2.7-0.96,4.53c0,1.74,0.32,3.21,0.96,4.39
		c0.64,1.19,1.51,2.13,2.61,2.82c1.1,0.69,2.38,1.17,3.85,1.44c1.46,0.27,2.97,0.41,4.53,0.41c3.85,0,6.82-0.64,8.93-1.92
		c2.1-1.28,3.66-2.82,4.67-4.6c1.01-1.79,1.62-3.59,1.85-5.42c0.23-1.83,0.34-3.3,0.34-4.39V91.63z"/>
	<path class="st0" d="M272.52,28.32v52.6l24.58-25.54h23.07l-26.78,26.09l29.8,44.91h-23.62l-19.5-31.72l-7.55,7.28v24.45h-19.5
		V28.32H272.52z"/>
	<path class="st0" d="M374.69,126.38v-9.89h-0.41c-2.47,4.12-5.68,7.1-9.61,8.93c-3.94,1.83-7.96,2.75-12.08,2.75
		c-5.22,0-9.5-0.69-12.84-2.06c-3.34-1.37-5.97-3.32-7.9-5.84c-1.92-2.52-3.27-5.58-4.05-9.2c-0.78-3.61-1.17-7.62-1.17-12.02V55.38
		h19.5v40.1c0,5.86,0.91,10.23,2.75,13.11c1.83,2.88,5.08,4.33,9.75,4.33c5.31,0,9.15-1.58,11.54-4.74
		c2.38-3.16,3.57-8.35,3.57-15.59V55.38h19.5v71H374.69z"/>
	<path class="st0" d="M424.12,28.32v35.71h0.28c2.38-3.66,5.61-6.34,9.68-8.03c4.07-1.69,8.31-2.54,12.7-2.54
		c3.57,0,7.1,0.73,10.57,2.2c3.48,1.47,6.61,3.71,9.41,6.73c2.79,3.02,5.06,6.89,6.8,11.61c1.74,4.72,2.61,10.32,2.61,16.82
		c0,6.5-0.87,12.11-2.61,16.82c-1.74,4.72-4.01,8.58-6.8,11.6c-2.79,3.02-5.93,5.26-9.41,6.73c-3.48,1.46-7,2.2-10.57,2.2
		c-5.22,0-9.89-0.82-14.01-2.47s-7.23-4.44-9.34-8.38h-0.28v9.06h-18.54V28.32H424.12z M455.71,82.29
		c-0.64-2.75-1.65-5.17-3.02-7.28c-1.37-2.11-3.09-3.78-5.15-5.01c-2.06-1.24-4.56-1.85-7.48-1.85c-2.84,0-5.31,0.62-7.42,1.85
		c-2.11,1.24-3.84,2.91-5.22,5.01c-1.37,2.11-2.38,4.53-3.02,7.28c-0.64,2.75-0.96,5.63-0.96,8.65c0,2.93,0.32,5.77,0.96,8.51
		c0.64,2.75,1.65,5.17,3.02,7.28c1.37,2.11,3.11,3.78,5.22,5.01c2.11,1.24,4.58,1.85,7.42,1.85c2.93,0,5.42-0.62,7.48-1.85
		c2.06-1.24,3.77-2.91,5.15-5.01c1.37-2.1,2.38-4.53,3.02-7.28c0.64-2.75,0.96-5.58,0.96-8.51
		C456.67,87.92,456.35,85.04,455.71,82.29z"/>
	<path class="st0" d="M507.48,105.23v21.15h-21.56v-21.15H507.48z"/>
</g>
</svg>
